<?xml version="1.0" encoding="utf-8"?>
<!-- Generator: Adobe Illustrator 15.0.0, SVG Export Plug-In . SVG Version: 6.00 Build 0)  -->
<!DOCTYPE svg PUBLIC "-//W3C//DTD SVG 1.1//EN" "http://www.w3.org/Graphics/SVG/1.1/DTD/svg11.dtd">
<svg version="1.1" id="Lager_1" xmlns="http://www.w3.org/2000/svg" xmlns:xlink="http://www.w3.org/1999/xlink" x="0px" y="0px"
	 width="324.061px" height="355.75px" viewBox="0 0 324.061 355.75" enable-background="new 0 0 324.061 355.75"
	 xml:space="preserve">
<g transform="translate(640 470)">
	<path fill="#BABABA" d="M-558.002-302C-571.746-302-583-313.25-583-327s11.254-25,24.998-25c13.749,0,25.002,11.25,25.002,25
		C-533-313.252-544.249-302-558.002-302z M-558.002-350.753c-13.119,0-23.748,10.625-23.748,23.75s10.624,23.75,23.748,23.75
		s23.753-10.626,23.753-23.75S-544.878-350.753-558.002-350.753z"/>
	<path fill="#FFFFFF" d="M-555.253-329.251c0-3.125,2.626-5.751,5.751-5.751c0.503,0,0.874,0,1.376,0.126v-5.001h-19.622v25.126
		c0,1.5,1.001,2.125,2.251,1.25l7.499-8.5l7.495,8.5c1.255,0.875,2.251,0.25,2.251-1.25v-8.876
		c-0.371,0.125-0.874,0.125-1.377,0.125C-552.749-323.503-555.253-326.128-555.253-329.251z"/>
	<path fill="#E20917" d="M-549.502-335.003c-3.125,0-5.751,2.625-5.751,5.751c0,3.124,2.626,5.749,5.751,5.749
		s5.751-2.625,5.751-5.749C-543.877-332.502-546.377-335.003-549.502-335.003z M-545.625-332.127l-3.627,6.375
		c-0.249,0.125-0.371,0.25-0.62,0.25c-0.254,0-0.376-0.126-0.503-0.25l-2.998-4.25c-0.254-0.375-0.127-0.75,0.249-0.875
		c0.371-0.25,0.747-0.125,0.874,0.25l2.373,3.375l3.125-5.499c0.254-0.375,0.625-0.375,0.879-0.25
		C-545.499-332.877-545.499-332.502-545.625-332.127z"/>
	<path fill="#FFFFFF" d="M-545.625-332.127l-3.627,6.375c-0.249,0.125-0.371,0.25-0.62,0.25c-0.254,0-0.376-0.126-0.503-0.25
		l-2.998-4.25c-0.254-0.375-0.127-0.75,0.249-0.875c0.371-0.25,0.747-0.125,0.874,0.25l2.373,3.375l3.125-5.499
		c0.254-0.375,0.625-0.375,0.879-0.25C-545.499-332.877-545.499-332.502-545.625-332.127z"/>
</g>
<g transform="translate(690 470)">
	<g>
		<g>
			<path fill="#FFFFFF" stroke="#FFFFFF" d="M-565.445-429.459h14.689v19.723h-14.689V-429.459z"/>
			<path d="M-558-404c-8.756,0-16-7.145-16-16s7.146-16,16-16c8.854,0,16,7.145,16,16C-542-411.144-549.246-404-558-404z
				 M-558-416.78l5.131,5.938c0.906,0.604,1.611,0.201,1.611-0.805v-17.309h-13.389v17.309c0,1.107,0.705,1.409,1.609,0.805
				L-558-416.78"/>
		</g>
	</g>
</g>
<g transform="translate(380 410)">
	<path fill="#BABABA" d="M-365-303c-8.251,0-15-6.75-15-15s6.749-15,15-15c8.25,0,15,6.75,15,15S-356.75-303-365-303z M-365-332.249
		c-7.875,0-14.25,6.375-14.25,14.25s6.375,14.25,14.25,14.25s14.249-6.45,14.249-14.25S-357.125-332.249-365-332.249z"/>
	<g>
		<g>
			<path fill="#222222" d="M-363.351-319.351c0-1.875,1.575-3.45,3.45-3.45c0.3,0,0.525,0,0.826,0.076v-3h-11.854v15.075
				c0,0.899,0.604,1.275,1.354,0.749l4.426-5.1l4.5,5.1c0.75,0.526,1.354,0.15,1.354-0.749v-5.325
				c-0.229,0.075-0.525,0.075-0.826,0.075C-361.851-315.898-363.351-317.475-363.351-319.351z"/>
		</g>
		<path fill="#E20917" d="M-359.9-322.799c-1.875,0-3.45,1.575-3.45,3.45c0,1.95,1.575,3.45,3.45,3.45s3.449-1.575,3.449-3.45
			C-356.525-321.298-358.025-322.799-359.9-322.799z M-357.575-321.074l-2.175,3.825c-0.15,0.075-0.229,0.15-0.376,0.15
			c-0.149,0-0.228-0.075-0.299-0.15l-1.804-2.55c-0.146-0.225-0.071-0.451,0.148-0.526c0.226-0.149,0.451-0.074,0.521,0.15
			l1.429,2.025l1.875-3.3c0.146-0.225,0.376-0.225,0.521-0.15C-357.5-321.524-357.5-321.298-357.575-321.074z"/>
	</g>
	<path fill="#FFFFFF" d="M-357.575-321.074l-2.175,3.825c-0.15,0.075-0.229,0.15-0.376,0.15c-0.149,0-0.228-0.075-0.299-0.15
		l-1.804-2.55c-0.146-0.225-0.071-0.451,0.148-0.526c0.226-0.149,0.451-0.074,0.521,0.15l1.429,2.025l1.875-3.3
		c0.146-0.225,0.376-0.225,0.521-0.15C-357.5-321.524-357.5-321.298-357.575-321.074z"/>
</g>
<g transform="translate(830 280)">
	<g>
		<g>
			<path fill="#FFFFFF" d="M-747.868-239.962h21.028v20.126h-21.028V-239.962z"/>
			<g>
				<g>
					<g>
						<path d="M-736.999-246c-8.856,0-16.001,7.245-16.001,16c0,8.855,7.243,16,16.001,16c8.854,0,15.998-7.246,15.998-16
							C-720.899-238.756-728.146-246-736.999-246L-736.999-246z M-728.748-222.151l-0.604,0.604c-0.604,0.604-1.711,0.604-2.213,0
							l-5.436-5.434l-5.438,5.434c-0.604,0.604-1.711,0.604-2.213,0l-0.604-0.604c-0.604-0.604-0.604-1.711,0-2.214l5.437-5.435
							l-5.437-5.434c-0.604-0.604-0.604-1.71,0-2.213l0.604-0.604c0.604-0.604,1.711-0.604,2.213,0l5.438,5.434l5.436-5.434
							c0.604-0.604,1.711-0.604,2.213,0l0.604,0.604c0.604,0.604,0.604,1.711,0,2.213l-5.438,5.434l5.438,5.435
							C-728.045-223.862-728.045-222.856-728.748-222.151L-728.748-222.151z"/>
					</g>
				</g>
			</g>
		</g>
	</g>
</g>
<g transform="translate(780 500)">
	<g>
		<g>
			<path fill="#FFFFFF" d="M-775.2-460.698h22.5v19.9h-22.5V-460.698z"/>
			<g>
				<path fill="#1D1D1B" d="M-764-434c-8.8,0-16-7.2-16-16s7.2-16,16-16s16,7.2,16,16C-748.1-441.198-755.3-434-764-434z
					 M-752.799-454.9l-5.804-5.799l-11.196,11.2l5.8,5.8C-764-443.798-752.799-454.9-752.799-454.9z M-771.1-448.1l-1.6,7.3l7.3-1.6
					L-771.1-448.1z"/>
			</g>
		</g>
	</g>
</g>
<g transform="translate(830 500)">
	<g>
		<g>
			<path fill="#FFFFFF" d="M-786.2-460.699h22.5v19.9h-22.5V-460.699z"/>
			<g>
				<path fill="#B2B2B2" d="M-775-434c-8.8,0-16-7.2-16-16s7.2-16,16-16s16,7.2,16,16C-759.1-441.199-766.3-434-775-434z
					 M-763.8-454.901l-5.804-5.8l-11.196,11.2l5.8,5.8C-775-443.799-763.8-454.901-763.8-454.901z M-782.1-448.099l-1.6,7.3l7.3-1.6
					L-782.1-448.099z"/>
			</g>
		</g>
	</g>
</g>
<g transform="translate(840 550)">
	<g>
		<g>
			<circle cx="-670" cy="-500" r="16"/>
		</g>
		<path fill="#FFFFFF" d="M-676.598-509.199h12.9v18.299h-12.9V-509.199z"/>
		<path fill="none" stroke="#2B2B2B" stroke-width="2" stroke-miterlimit="10" d="M-676.5-500.299h9.701"/>
		<path fill="none" stroke="#FFFFFF" stroke-width="2" stroke-miterlimit="10" d="M-681.998-500.299h5.5"/>
		<path fill="none" stroke="#333333" stroke-width="2" stroke-miterlimit="10" d="M-671.6-505.5l5.201,5.201l-5.201,5.199"/>
	</g>
</g>
<g>
	<circle fill="#FFFFFF" cx="42" cy="221.5" r="41.5"/>
	<g>
		<path fill="#E30613" d="M19.968,243.475c0.428-1.404,2.38-7.265,6.531-7.813c4.21-0.488,5.919-0.43,7.507-0.43
			c1.038,0,3.662,0.063,5.248,0.063c0.55,2.625,0.977,5.798,0.977,5.798c0.432-2.071,0.432-5.92,0.432-5.92l-0.187-2.864
			c8.729-1.896,10.497-8.426,10.497-8.426c-2.807,5.979-9.338,7.079-10.62,7.266v-0.063c0,0-1.277,0.308-2.258-0.427
			c-0.977-0.733-2.319-2.075-2.808-2.809c-0.489-0.73-1.587-2.264-2.075-3.604c-0.548-1.404-1.403-3.056-1.771-3.728
			c-0.427-0.729-0.606-2.26-0.729-3.662c-0.122-1.399-0.187-2.864-0.304-3.418c0,0-0.187-0.729-0.31-1.223
			c0-0.242-0.183-0.729-0.244-1.035c-0.061-0.484,0-1.279,0.188-1.895c0,0-1.038,0.486-0.854,2.625
			c-0.55-0.488-1.038-1.038-1.098-1.771c-0.187-1.344-0.063-4.396,0.244-5.678c0.305-1.279,2.563-4.641,3.231-5.8
			c0.732-1.222,4.21-5.677,8.117-6.228c3.906-0.553,10.438-1.226,15.137,6.35c4.698,7.509,3.848,16.111,3.661,17.209
			c0,0,1.404,1.037,1.346,2.933c0,0,4.516,3.604,6.835,9.582c2.315,5.979,1.035,9.582-0.553,11.597c0,0-5.733,4.455-6.042,14.16
			c0,0,0.793-4.94,2.933-8.729c1.587-2.867,3.601-4.271,4.939-5.188c1.648,0.31,3.727,1.225,4.883,3.479
			c0.243,0.607,0.552,1.343,0.854,2.193c5.311-6.591,8.483-15.136,8.483-24.472c0-22.218-18.006-40.157-40.158-40.157
			c-22.214,0-40.157,18.004-40.157,40.157c0,12.631,5.798,23.858,14.891,31.245c0.187-0.43,0.367-0.854,0.488-1.223
			C18.138,249.454,19.115,246.951,19.968,243.475z"/>
		<path fill="#E30613" d="M54.938,237.611c0.187-1.771,1.038-4.76,1.404-5.797c0,0,0-0.063,0.061-0.244
			c0.063-0.063,0.063-0.188,0.063-0.188c0.305-1.399,1.404-5.979,0.611-9.765c0,0-1.527,0-2.384-0.61c0,0-0.55,6.286,1.101,9.892
			C54.755,233.83,54.938,237.611,54.938,237.611z"/>
	</g>
</g>
<g transform="translate(380 410)">
	<path fill="#BABABA" d="M-355.001-242C-368.75-242-380-253.25-380-267s11.25-25,24.999-25C-341.25-292-330-280.75-330-267
		C-329.999-253.25-341.249-242-355.001-242z M-355.001-290.748c-13.125,0-23.749,10.625-23.749,23.75s10.624,23.75,23.749,23.75
		c13.127,0,23.75-10.75,23.75-23.75C-331.25-279.998-341.873-290.748-355.001-290.748z"/>
	<g>
		<g>
			<path fill="#222222" d="M-352.248-269.249c0-3.125,2.625-5.751,5.748-5.751c0.501,0,0.875,0,1.377,0.126v-5h-19.751v25.125
				c0,1.5,0.999,2.125,2.25,1.25l7.375-8.5l7.499,8.5c1.25,0.875,2.25,0.25,2.25-1.25v-8.875c-0.373,0.125-0.875,0.125-1.374,0.125
				C-349.75-263.498-352.248-266.124-352.248-269.249z"/>
		</g>
		<path fill="#E20917" d="M-346.501-275c-3.123,0-5.748,2.625-5.748,5.751c0,3.25,2.625,5.75,5.748,5.75
			c3.125,0,5.751-2.625,5.751-5.75C-340.875-272.499-343.376-275-346.501-275z M-342.624-272.125l-3.626,6.375
			c-0.251,0.125-0.375,0.25-0.626,0.25c-0.25,0-0.375-0.125-0.5-0.25l-3-4.25c-0.25-0.375-0.124-0.75,0.25-0.875
			c0.374-0.25,0.75-0.125,0.875,0.25l2.374,3.375l3.125-5.499c0.251-0.375,0.623-0.375,0.875-0.25
			C-342.5-272.875-342.5-272.499-342.624-272.125z"/>
	</g>
	<path fill="#FFFFFF" d="M-342.624-272.125l-3.626,6.375c-0.251,0.125-0.375,0.25-0.626,0.25c-0.25,0-0.375-0.125-0.5-0.25l-3-4.25
		c-0.25-0.375-0.124-0.75,0.25-0.875c0.374-0.25,0.75-0.125,0.875,0.25l2.374,3.375l3.125-5.499c0.251-0.375,0.623-0.375,0.875-0.25
		C-342.5-272.875-342.5-272.499-342.624-272.125z"/>
</g>
<g transform="translate(0 360)">
	<g>
		<title>Layer 1</title>
		<g>
			<path fill="#222222" d="M137.002-107.511l-30.161,34.903C101.77-69.12,97.5-71.536,97.5-77.71V-180h79v102.293
				c0,6.174-4.273,8.59-9.341,5.1L137.002-107.511"/>
			<g>
				<path fill="#FFFFFF" d="M135.934-137.581c12.01,0,21.616,8.861,25.62,14.494l-0.527,0.535c-4.54-4.83-13.61-8.591-23.757-8.591
					c-12.811,0-20.284,3.754-25.888,8.588l-0.533-0.535c3.47-5.902,11.744-14.491,25.088-14.491H135.934z"/>
			</g>
			<g>
				<path fill="#FFFFFF" d="M130.597-157.18c0,3.49-2.669,6.714-6.406,6.714c-3.734,0-6.403-3.224-6.403-6.714
					c-0.269-3.758,2.669-6.715,6.14-6.715C127.928-163.895,130.596-160.938,130.597-157.18L130.597-157.18z M154.351-157.18
					c0,3.49-2.671,6.714-6.403,6.714c-3.734,0-6.402-3.224-6.402-6.714c0-3.758,2.938-6.715,6.401-6.715
					C151.68-163.895,154.351-160.938,154.351-157.18L154.351-157.18z"/>
			</g>
		</g>
	</g>
</g>
<g transform="translate(620 230)">
	<g>
		<title>Layer 1</title>
		<g>
			<path d="M-600.934-208h-16.135c-1.612,0-2.931-1.32-2.931-2.933v-16.133c0-1.615,1.317-2.934,2.931-2.934h16.135
				c1.615,0,2.937,1.32,2.937,2.934v16.133c0,1.613-1.324,2.933-2.938,2.933H-600.934L-600.934-208z"/>
			<path fill="#FFFFFF" d="M-601.595-227.361c-0.655-0.365-1.464-0.071-1.828,0.587l-6.749,12.686l-4.915-7.552
				c-0.439-0.663-1.245-0.808-1.906-0.369c-0.662,0.44-0.811,1.246-0.369,1.907l6.161,9.459c0.219,0.367,0.659,0.587,1.173,0.587
				h0.074c0.513,0,0.878-0.293,1.171-0.735l7.775-14.737C-600.641-226.187-600.935-226.993-601.595-227.361L-601.595-227.361
				L-601.595-227.361z"/>
		</g>
	</g>
</g>
<g transform="translate(660 230)">
	<g>
		<title>Layer 1</title>
		<g>
			<g>
				<path fill="#E6E6E6" stroke="#999999" stroke-width="1.2" stroke-miterlimit="10" d="M-604.409-208.65h-15.181
					c-1.519,0-2.762-1.242-2.762-2.76v-15.18c0-1.518,1.242-2.76,2.762-2.76h15.181c1.518,0,2.759,1.242,2.759,2.76v15.18
					C-601.651-209.892-602.891-208.65-604.409-208.65z"/>
			</g>
		</g>
	</g>
</g>
<g transform="translate(530 210)">
	<title>Layer 1</title>
	<path fill="#FFFFFF" d="M-440.188-105.399c0.606,0.533,1.594,0.533,2.125,0l0.532-0.47c0.607-0.532,0.607-1.402,0-1.869
		l-11.624-10.292c-0.604-0.534-0.604-1.403,0-1.87l11.701-10.36c0.604-0.534,0.604-1.402,0-1.87l-0.535-0.47
		c-0.608-0.533-1.594-0.533-2.126,0l-14.431,12.633c-0.607,0.534-0.607,1.404,0,1.872l14.354,12.699L-440.188-105.399
		L-440.188-105.399z"/>
</g>
<g>
	<g>
		<ellipse cx="208" cy="50" rx="16" ry="16"/>
	</g>
	<g>
		<ellipse fill="#FFFFFF" cx="213.642" cy="48.553" rx="3.545" ry="3.545"/>
	</g>
	<g>
		<g>
			<ellipse fill="#FFFFFF" cx="203.009" cy="45.927" rx="4.332" ry="4.332"/>
		</g>
	</g>
	<g>
		<path fill="#FFFFFF" d="M220.465,58.267c-0.131-1.05-0.521-2.101-0.919-2.889c-0.918-1.445-2.494-2.494-5.646-2.494
			c-1.313,0-2.229,0.131-3.147,0.526l0.131,0.13c0.919,1.445,1.311,3.675,1.444,6.301v4.334
			C215.61,63.255,218.498,61.025,220.465,58.267z"/>
	</g>
	<g>
		<path fill="#FFFFFF" d="M209.966,53.934c-1.051-1.968-3.283-2.886-6.695-2.886c-3.413,0-5.645,0.918-6.694,2.886
			c-0.522,0.789-1.055,2.495-1.183,3.939c2.893,4.07,7.483,6.958,12.864,6.958c1.053,0,2.229-0.133,3.282-0.394V59.71
			C211.148,57.216,210.619,55.248,209.966,53.934z"/>
	</g>
</g>
<g>
	<path fill="#808080" d="M316,248.602c0,1.867-1.73,3.398-3.854,3.398H191.85c-2.117,0-3.85-1.531-3.85-3.398V221.4
		c0-1.87,1.729-3.399,3.85-3.399h120.299c2.119,0,3.85,1.529,3.85,3.399v27.201H316L316,248.602z"/>
</g>
<g>
	<path fill="#E30613" d="M316,210.602c0,1.871-1.73,3.398-3.854,3.398H191.85c-2.117,0-3.85-1.527-3.85-3.398V183.4
		c0-1.869,1.729-3.399,3.85-3.399h120.299c2.119,0,3.85,1.53,3.85,3.399v27.201H316L316,210.602z"/>
</g>
<g>
	<g>
		<path d="M148.546,132.479c0-0.63,0.141-1.261,0.351-1.821c-2.171-1.19-4.622-1.82-7.283-1.82c-8.399,0-15.267,6.863-15.267,15.266
			s6.863,15.266,15.267,15.266c8.404,0,15.271-6.862,15.271-15.266c0-2.171-0.42-4.202-1.262-6.093
			c-0.418,0.141-0.908,0.21-1.33,0.21C151.206,138.151,148.546,135.63,148.546,132.479z"/>
	</g>
	<g>
		<circle fill="#FFFFFF" cx="147.075" cy="142.633" r="3.431"/>
	</g>
	<g>
		<g>
			<circle fill="#FFFFFF" cx="136.711" cy="140.112" r="4.201"/>
		</g>
	</g>
	<g>
		<path fill="#FFFFFF" d="M153.728,152.156c-0.141-1.05-0.49-2.03-0.909-2.8c-0.907-1.401-2.447-2.451-5.529-2.451
			c-1.264,0-2.172,0.14-3.081,0.49c0,0,1.541,2.31,1.541,6.302v4.201C149.035,156.989,151.837,154.818,153.728,152.156z"/>
	</g>
	<g>
		<path fill="#FFFFFF" d="M143.504,147.885c-1.05-1.891-3.221-2.801-6.513-2.801c-3.291,0-5.532,0.911-6.517,2.801
			c-0.49,0.771-1.051,2.451-1.12,3.852c2.805,3.991,7.282,6.793,12.535,6.793c1.05,0,2.171-0.141,3.221-0.351v-4.622
			C145.044,150.896,144.134,149.215,143.504,147.885z"/>
	</g>
</g>
<g transform="translate(640 470)">
	<path fill="#BABABA" d="M-499-302c-13.655,0-25-11.134-25-25s11.135-25,25-25c13.652,0,25,11.135,25,25S-485.344-302-499-302z
		 M-499-350.668c-13.165,0-23.669,10.644-23.669,23.669s10.644,23.668,23.669,23.668c13.167,0,23.67-10.644,23.67-23.668
		S-485.834-350.668-499-350.668z"/>
</g>
<path fill="#60A937" d="M154.218,126.807c-3.15,0-5.672,2.662-5.672,5.673c0,3.151,2.66,5.672,5.672,5.672
	c3.152,0,5.673-2.661,5.673-5.672C159.891,129.328,157.371,126.807,154.218,126.807z M153.587,136.61
	c-0.209,0-0.419-0.14-0.563-0.28l-3.012-4.341c-0.21-0.35-0.141-0.771,0.21-0.98c0.354-0.21,0.771-0.141,0.981,0.209l2.38,3.432
	l3.08-5.393c0.211-0.349,0.631-0.419,0.979-0.28c0.354,0.211,0.42,0.63,0.28,0.981l-3.643,6.372
	C154.078,136.471,153.798,136.61,153.587,136.61L153.587,136.61z"/>
<path fill="#60A937" d="M16,296c-4.445,0-8,3.753-8,8.002c0,4.443,3.753,7.998,8,7.998c4.44,0,8-3.754,8-7.998
	C23.901,299.458,20.444,296,16,296z M15.011,309.826c-0.296,0-0.592-0.197-0.791-0.395l-4.247-6.129
	c-0.296-0.49-0.197-1.085,0.297-1.383c0.493-0.294,1.086-0.193,1.382,0.298l3.358,4.843l4.346-7.605
	c0.296-0.492,0.892-0.592,1.382-0.396c0.495,0.301,0.597,0.895,0.396,1.385l-5.136,8.988
	C15.703,309.531,15.406,309.729,15.011,309.826C15.111,309.826,15.011,309.826,15.011,309.826z"/>
<g>
	<path fill="#FFFFFF" d="M211.58,228.675c-1.869,0-3.314,1.784-3.314,3.995c0,2.208,1.531,3.995,3.314,3.995
		c1.871,0,3.313-1.787,3.313-3.995C214.895,230.459,213.451,228.675,211.58,228.675"/>
	<g>
		<path fill="#FFFFFF" d="M211.58,237.345c-3.483,0-6.033,1.021-6.629,2.04c-0.515,0.934-0.854,2.123-1.104,3.397h15.725
			c-0.255-1.274-0.595-2.464-1.104-3.397C217.871,238.363,215.065,237.345,211.58,237.345z"/>
	</g>
	<g>
		<path fill="#FFFFFF" d="M199.851,236.323h-3.061v-1.445h3.061v-3.229h1.443v3.229h3.062v1.445h-3.062v3.229h-1.443V236.323z"/>
	</g>
</g>
<g>
	<path fill="#E20917" stroke="#FEFFFD" stroke-width="1.7" stroke-miterlimit="10" d="M39,296c-4.445,0-8,3.753-8,7.998
		c0,4.443,3.754,8.002,8,8.002c4.44,0,8-3.753,8-8.002C46.999,299.455,43.443,296,39,296z"/>
</g>
<path fill="#CECECE" d="M120.989,90.001l-8.239,8.436c-0.327,0.334-0.327,0.95,0,1.284c0.164,0.167,0.436,0.279,0.652,0.279
	c0.22,0,0.438-0.056,0.604-0.279L123.5,90l-9.499-9.721C113.838,80.112,113.618,80,113.4,80c-0.218,0-0.436,0.055-0.652,0.279
	c-0.327,0.335-0.327,0.95,0,1.285L120.989,90.001z"/>
<g>
	<circle fill="#FFFFFF" cx="205.162" cy="197.632" r="8.415"/>
	<g>
		<path fill="#E30613" d="M204.311,198.48h-3.655v-1.615h3.655v-3.824h1.785v3.824h3.655v1.615h-3.655v3.824h-1.785V198.48z"/>
	</g>
</g>
<g>
	<path fill="#808080" d="M316,286.602c0,1.868-1.73,3.398-3.854,3.398H191.85c-2.117,0-3.85-1.53-3.85-3.398V259.4
		c0-1.871,1.729-3.399,3.85-3.399h120.299c2.119,0,3.85,1.528,3.85,3.399v27.201H316L316,286.602z"/>
</g>
<path fill="#61A945" d="M205.28,264.53c-4.677,0-8.416,3.946-8.416,8.415c0,4.674,3.947,8.414,8.416,8.414
	c4.677,0,8.414-3.947,8.414-8.414C213.59,268.166,209.953,264.53,205.28,264.53z"/>
<path fill="#FFFFFF" d="M204.428,277.959c-0.254,0-0.509-0.17-0.68-0.34l-3.655-5.271c-0.254-0.424-0.169-0.934,0.257-1.188
	c0.425-0.256,0.938-0.17,1.189,0.254l2.889,4.166l3.741-6.545c0.254-0.426,0.765-0.51,1.188-0.34
	c0.429,0.256,0.514,0.764,0.34,1.188l-4.419,7.734C205.025,277.703,204.768,277.873,204.428,277.959
	C204.513,277.959,204.428,277.959,204.428,277.959z"/>
<g>
	<path fill="#E30613" d="M316,172.6c0,1.871-1.73,3.4-3.854,3.4h-120.3c-2.117,0-3.849-1.529-3.849-3.4v-27.2
		c0-1.87,1.729-3.4,3.849-3.4h120.3c2.119,0,3.85,1.53,3.85,3.4v27.2H316z"/>
</g>
<path fill="#FFFFFF" d="M271.504,74.801H230.8V34.097h40.704V74.801z M250.799,36.447c-9.942,0-18.002,8.06-18.002,18.002
	c0,9.942,8.06,18.002,18.002,18.002c9.938,0,18.002-8.06,18.002-18.002C268.801,44.507,260.741,36.447,250.799,36.447z"/>
<path fill="#E20917" d="M61,292c-6.249,0-11.5,5.25-11.5,11.502C49.5,309.75,54.751,315,61,315s11.5-5.25,11.5-11.498
	C72.248,297.002,67.249,292,61,292z"/>
<g transform="translate(380 410)">
	<path fill="#BABABA" d="M-325-303c-8.251,0-15-6.75-15-15s6.749-15,15-15c8.25,0,15,6.75,15,15S-316.75-303-325-303z M-325-332.249
		c-7.875,0-14.25,6.375-14.25,14.25s6.375,14.25,14.25,14.25s14.249-6.45,14.249-14.25S-317.125-332.249-325-332.249z"/>
	<g>
		<g>
			<path fill="#BBBBBB" d="M-325.138-315.059l-4.415,5.067c-0.725,0.506-1.375,0.145-1.375-0.724v-14.91h11.581v14.91
				c0,0.869-0.65,1.23-1.376,0.724L-325.138-315.059"/>
		</g>
	</g>
</g>
<circle fill="#BBBBBB" cx="91" cy="303" r="12"/>
<g id="Icons_with_numbers">
	<g id="Group" transform="translate(-48.000000, -528.000000)">
		<path id="Oval_210_copy_2" fill="#F70825" d="M130,551.5c-6.352,0-11.5-5.149-11.5-11.5c0-6.352,5.148-11.5,11.5-11.5
			c6.351,0,11.5,5.148,11.5,11.5C141.5,546.351,136.351,551.5,130,551.5z M124.25,538.563v2.875h11.5v-2.875H124.25z"/>
	</g>
</g>
</svg>
